<svg width="309" height="181" viewBox="0 0 309 181" fill="none" xmlns="http://www.w3.org/2000/svg">
<path d="M302 8.50004C194.4 -1.89995 141.5 66.5 141.5 66.5M141.5 66.5C141.5 66.5 130.236 109.349 141.5 129C155.764 153.885 189.421 170.981 210 151C226.251 135.222 221.264 112.651 210 93C195.736 68.1151 141.5 66.5 141.5 66.5ZM141.5 66.5C141.5 66.5 81.2908 66.4329 62.5 93C44.121 118.985 44.121 148.515 62.5 174.5M62.5 174.5C40.8259 165.323 28.6741 160.177 7 151M62.5 174.5C75.7778 154.974 83.2222 144.026 96.5 124.5" stroke="black" stroke-width="13" stroke-linecap="round" stroke-linejoin="round"/>
</svg>
